<?xml version="1.0" encoding="UTF-8" standalone="no"?>
<!-- Created with Inkscape (http://www.inkscape.org/) -->

<svg
   width="69.811859mm"
   height="88.392555mm"
   viewBox="0 0 80.117419 101.44098"
   version="1.1"
   id="svg1"
   xml:space="preserve"
   inkscape:version="1.4 (86a8ad7, 2024-10-11)"
   sodipodi:docname="logo.svg"
   xmlns:inkscape="http://www.inkscape.org/namespaces/inkscape"
   xmlns:sodipodi="http://sodipodi.sourceforge.net/DTD/sodipodi-0.dtd"
   xmlns="http://www.w3.org/2000/svg"
   xmlns:svg="http://www.w3.org/2000/svg"><sodipodi:namedview
     id="namedview1"
     pagecolor="#505050"
     bordercolor="#eeeeee"
     borderopacity="1"
     inkscape:showpageshadow="0"
     inkscape:pageopacity="0"
     inkscape:pagecheckerboard="0"
     inkscape:deskcolor="#505050"
     inkscape:document-units="mm"
     showborder="false"
     borderlayer="false"
     inkscape:zoom="0.49264169"
     inkscape:cx="194.86779"
     inkscape:cy="273.0179"
     inkscape:window-width="1366"
     inkscape:window-height="715"
     inkscape:window-x="-8"
     inkscape:window-y="22"
     inkscape:window-maximized="1"
     inkscape:current-layer="g11" /><defs
     id="defs1" /><g
     inkscape:label="Layer 1"
     inkscape:groupmode="layer"
     id="layer1"
     transform="translate(-61.497397,-87.343768)"><g
       id="g11"
       transform="matrix(0.26458333,0,0,0.26458333,-143.37849,34.368759)">
	
	
	<g
   id="g12"
   transform="translate(525.73707,-8.1194915)"><g
     id="g1"><g
       id="g10">
		<linearGradient
   id="SVGID_1_"
   gradientUnits="userSpaceOnUse"
   x1="387.86771"
   y1="340.91849"
   x2="433.16049"
   y2="340.91849">
			<stop
   offset="0"
   style="stop-color:#5E3FE3"
   id="stop1" />
			<stop
   offset="1"
   style="stop-color:#000000"
   id="stop2" />
		</linearGradient>
		<path
   fill="url(#SVGID_1_)"
   d="m 431.461,400 h 57.145 c 0,-65.663 -53.834,-118.163 -120.004,-118.163 v 56.707 c 34.715,-10e-4 62.859,27.006 62.859,61.456 z"
   id="path2"
   style="fill:url(#SVGID_1_)" />
		<g
   id="g6">
			<linearGradient
   id="SVGID_2_"
   gradientUnits="userSpaceOnUse"
   x1="356.7251"
   y1="304.16989"
   x2="307.2894"
   y2="304.16989">
				<stop
   offset="0"
   style="stop-color:#5E3FE3"
   id="stop3" />
				<stop
   offset="1"
   style="stop-color:#939598"
   id="stop4" />
			</linearGradient>
			<path
   fill="url(#SVGID_2_)"
   d="M 488.544,400 H 431.398 V 208.34 h 10e-4 c 31.56,0 57.145,25.585 57.145,57.145 z"
   id="path4"
   style="fill:url(#SVGID_2_)" />
			<linearGradient
   id="SVGID_3_"
   gradientUnits="userSpaceOnUse"
   x1="517.64648"
   y1="467.78519"
   x2="482.71869"
   y2="448.29059">
				<stop
   offset="0"
   style="stop-color:#5E3FE3"
   id="stop5" />
				<stop
   offset="1"
   style="stop-color:#000000"
   id="stop6" />
			</linearGradient>
			<path
   fill="url(#SVGID_3_)"
   d="m 488.544,400 h -57.146 c 0,66.171 53.834,121.004 120.005,121.004 v -57.145 c -34.715,0 -62.859,-29.142 -62.859,-63.859 z"
   id="path6"
   style="fill:url(#SVGID_3_)" />
		</g>
		<linearGradient
   id="SVGID_4_"
   gradientUnits="userSpaceOnUse"
   x1="356.72711"
   y1="460.00201"
   x2="307.29181"
   y2="460.00201">
			<stop
   offset="0"
   style="stop-color:#5E3FE3"
   id="stop7" />
			<stop
   offset="1"
   style="stop-color:#000000"
   id="stop8" />
		</linearGradient>
		<path
   fill="url(#SVGID_4_)"
   d="m 368.601,463.298 c -34.716,0 -62.859,-28.848 -62.859,-63.298 h -57.145 c 0,65.663 53.834,120.004 120.004,120.004 66.17,0 120.004,-54.341 120.004,-120.004 h -0.06 -57.087 c -0.043,34.413 -28.167,63.298 -62.857,63.298 z"
   id="path8"
   style="fill:url(#SVGID_4_)" />
		<path
   fill="#5e3fe3"
   d="m 368.601,338.543 v -56.707 c -66.17,0 -120.004,52.5 -120.004,118.163 h 57.145 c 0,-34.449 28.143,-61.456 62.859,-61.456 z"
   id="path9" />
		<path
   fill="#5e3fe3"
   d="m 248.597,591.739 v 0 c 31.56,0 57.145,-25.585 57.145,-57.145 V 400 h -57.145 z"
   id="path10" />
	</g><rect
       x="366.5"
       y="282.04199"
       fill="#5e3fe3"
       width="4"
       height="56.292"
       id="rect10" /></g></g>
</g></g></svg>
