<svg width="94" height="33" viewBox="0 0 94 33" fill="none" xmlns="http://www.w3.org/2000/svg">
<path d="M11.4443 16.5005H14.8448C14.8448 12.5929 11.6413 9.46875 7.7038 9.46875V12.8433C9.76956 12.8432 11.4443 14.4504 11.4443 16.5005Z" fill="url(#paint0_linear_170_11354)"/>
<path d="M14.8513 16.4991H11.4508V5.09375C13.3288 5.09375 14.8513 6.61627 14.8513 8.49436V16.4991Z" fill="url(#paint1_linear_170_11354)"/>
<path d="M14.8513 16.5H11.4508C11.4508 20.4377 14.6542 23.7008 18.5918 23.7008V20.3002C16.5261 20.3002 14.8513 18.566 14.8513 16.5Z" fill="url(#paint2_linear_170_11354)"/>
<path d="M7.71132 20.2668C5.64549 20.2668 3.9708 18.5501 3.9708 16.5H0.570312C0.570312 20.4075 3.77378 23.6413 7.71132 23.6413C11.6489 23.6413 14.8523 20.4075 14.8523 16.5H14.8487H11.4517C11.4491 18.5479 9.77559 20.2668 7.71132 20.2668Z" fill="url(#paint3_linear_170_11354)"/>
<path d="M7.71132 12.8413V9.4668C3.77378 9.4668 0.570312 12.591 0.570312 16.4985H3.9708C3.9708 14.4485 5.64549 12.8413 7.71132 12.8413Z" fill="#5E3FE3"/>
<path d="M0.570312 27.9101C2.44833 27.9101 3.9708 26.3876 3.9708 24.5095V16.5H0.570312V27.9101Z" fill="#5E3FE3"/>
<path d="M26.072 22.4336L28.1215 10.7701H32.4369C33.2478 10.7701 33.9199 10.9145 34.4531 11.2033C34.9862 11.481 35.3806 11.8532 35.6361 12.3197C35.8916 12.7862 36.0193 13.2972 36.0193 13.8526C36.0193 14.6968 35.8138 15.4244 35.4028 16.0354C34.9918 16.6352 34.4197 17.1017 33.6866 17.435C32.9646 17.7571 32.1315 17.9182 31.1873 17.9182H29.0046L28.2048 22.4336H26.072ZM29.3045 16.1853H31.3539C32.1315 16.1853 32.7369 16.002 33.1701 15.6355C33.6033 15.2578 33.8199 14.719 33.8199 14.0192C33.8199 13.5638 33.6755 13.1972 33.3867 12.9195C33.0979 12.6418 32.6369 12.503 32.0037 12.503H29.9543L29.3045 16.1853ZM38.624 22.6335C37.7576 22.6335 37.0911 22.4003 36.6246 21.9337C36.1581 21.4561 35.9248 20.7729 35.9248 19.8843C35.9248 19.5733 35.9581 19.2234 36.0248 18.8346L36.8579 14.1692H38.974L38.1908 18.6346C38.1686 18.7679 38.152 18.8957 38.1408 19.0179C38.1297 19.1289 38.1242 19.2345 38.1242 19.3344C38.1242 20.3342 38.6129 20.834 39.5904 20.834C40.1903 20.834 40.7179 20.6285 41.1733 20.2175C41.6288 19.7954 41.9231 19.2234 42.0564 18.5013L42.8062 14.1692H44.939L43.4894 22.4336H41.6066L41.6732 21.0673C41.3289 21.5449 40.8956 21.9282 40.3736 22.217C39.8515 22.4947 39.2683 22.6335 38.624 22.6335ZM45.0285 22.4336L46.4781 14.1692H48.3943L48.3276 15.6688C48.7164 15.1578 49.1941 14.7468 49.7606 14.4358C50.3382 14.1248 50.9769 13.9693 51.6767 13.9693L51.2768 16.2186H50.6936C49.9827 16.2186 49.3718 16.3853 48.8608 16.7185C48.3498 17.0406 48.0166 17.6405 47.8611 18.518L47.1613 22.4336H45.0285ZM54.9013 22.6335C53.8016 22.6335 52.9241 22.317 52.2687 21.6838C51.6245 21.0506 51.3023 20.1953 51.3023 19.1178C51.3023 18.418 51.4245 17.7571 51.6689 17.135C51.9133 16.513 52.2632 15.9687 52.7186 15.5022C53.174 15.0245 53.7128 14.6524 54.3348 14.3858C54.968 14.1081 55.6622 13.9693 56.4176 13.9693C57.1507 13.9693 57.7783 14.1137 58.3004 14.4025C58.8225 14.6802 59.2224 15.069 59.5001 15.5688C59.7889 16.0576 59.9333 16.6185 59.9333 17.2517C59.9333 17.5183 59.9055 17.796 59.85 18.0848C59.8056 18.3625 59.75 18.6069 59.6834 18.8179H53.4018C53.4018 18.9068 53.4018 19.0012 53.4018 19.1012C53.4018 19.6566 53.5684 20.0953 53.9016 20.4175C54.2349 20.7285 54.6681 20.884 55.2013 20.884C55.6234 20.884 55.9955 20.7896 56.3176 20.6008C56.6509 20.4008 56.923 20.1453 57.1341 19.8343H59.3001C59.0447 20.3675 58.6948 20.8451 58.2504 21.2672C57.8172 21.6894 57.3118 22.0226 56.7342 22.267C56.1677 22.5114 55.5567 22.6335 54.9013 22.6335ZM56.1343 15.7021C55.6234 15.7021 55.1402 15.8521 54.6847 16.152C54.2293 16.4408 53.8961 16.8851 53.685 17.485H57.8006C57.8117 17.3961 57.8172 17.335 57.8172 17.3017C57.8283 16.8129 57.6784 16.4241 57.3673 16.1353C57.0563 15.8465 56.6453 15.7021 56.1343 15.7021Z" fill="black"/>
<path d="M60.2449 22.4336L62.2944 10.7701H64.4271L62.6609 20.7674H67.8262L67.5429 22.4336H60.2449ZM71.7711 12.9362C71.3823 12.9362 71.0601 12.8196 70.8047 12.5863C70.5603 12.3419 70.4381 12.042 70.4381 11.6865C70.4381 11.3311 70.5603 11.0367 70.8047 10.8035C71.0601 10.5591 71.3823 10.4369 71.7711 10.4369C72.1598 10.4369 72.4764 10.5591 72.7208 10.8035C72.9763 11.0367 73.104 11.3311 73.104 11.6865C73.104 12.042 72.9763 12.3419 72.7208 12.5863C72.4764 12.8196 72.1598 12.9362 71.7711 12.9362ZM68.8052 22.4336L70.2548 14.1692H72.3876L70.938 22.4336H68.8052ZM72.5464 22.4336L73.996 14.1692H75.8788L75.8288 15.5355C76.1731 15.0578 76.6064 14.6802 77.1284 14.4025C77.6505 14.1137 78.2337 13.9693 78.878 13.9693C79.7333 13.9693 80.3942 14.2081 80.8608 14.6857C81.3384 15.1523 81.5772 15.8299 81.5772 16.7185C81.5772 17.0295 81.5439 17.3794 81.4772 17.7682L80.6441 22.4336H78.5114L79.3112 17.9682C79.3223 17.8349 79.3334 17.7127 79.3445 17.6016C79.3667 17.4794 79.3778 17.3683 79.3778 17.2683C79.3778 16.2686 78.8835 15.7688 77.8949 15.7688C77.3062 15.7688 76.7841 15.9798 76.3287 16.4019C75.8732 16.8129 75.5789 17.3794 75.4456 18.1015L74.6791 22.4336H72.5464ZM82.0167 22.4336L84.1494 10.4369H86.2822L85.0325 17.4683L88.6149 14.1692H91.2641L87.0486 17.8349L90.3311 22.4336H87.7984L84.9159 18.1348L84.1494 22.4336H82.0167Z" fill="#5E3FE3"/>
<defs>
<linearGradient id="paint0_linear_170_11354" x1="8.85023" y1="12.9846" x2="11.5454" y2="12.9846" gradientUnits="userSpaceOnUse">
<stop stop-color="#5E3FE3"/>
<stop offset="1"/>
</linearGradient>
<linearGradient id="paint1_linear_170_11354" x1="7.00726" y1="10.7964" x2="4.06552" y2="10.7964" gradientUnits="userSpaceOnUse">
<stop stop-color="#5E3FE3"/>
<stop offset="1" stop-color="#939598"/>
</linearGradient>
<linearGradient id="paint2_linear_170_11354" x1="16.5831" y1="20.5338" x2="14.5046" y2="19.3738" gradientUnits="userSpaceOnUse">
<stop stop-color="#5E3FE3"/>
<stop offset="1"/>
</linearGradient>
<linearGradient id="paint3_linear_170_11354" x1="7.00474" y1="20.0706" x2="4.06303" y2="20.0706" gradientUnits="userSpaceOnUse">
<stop stop-color="#5E3FE3"/>
<stop offset="1"/>
</linearGradient>
</defs>
</svg>
