<svg width="24" height="24" viewBox="0 0 24 24" fill="none" xmlns="http://www.w3.org/2000/svg">
<path d="M10.7166 8.73891C10.7862 8.80855 10.8415 8.89123 10.8792 8.98223C10.9168 9.07323 10.9362 9.17076 10.9362 9.26925C10.9362 9.36774 10.9168 9.46527 10.8792 9.55627C10.8415 9.64727 10.7862 9.72995 10.7166 9.79959L8.39855 12.1177C8.25789 12.2583 8.06713 12.3373 7.86823 12.3373C7.66932 12.3373 7.47856 12.2583 7.33791 12.1177L5.88089 10.6607C5.74023 10.52 5.66122 10.3292 5.66122 10.1303C5.66123 9.93141 5.74025 9.74063 5.88091 9.59998C6.02158 9.45932 6.21235 9.3803 6.41127 9.38031C6.6102 9.38031 6.80097 9.45934 6.94163 9.6L7.8683 10.5267L9.65601 8.73895C9.79666 8.59833 9.98739 8.51933 10.1863 8.51932C10.3852 8.51931 10.5759 8.59829 10.7166 8.73891ZM12.7432 9.67828C12.5443 9.67828 12.3535 9.7573 12.2129 9.89795C12.0722 10.0386 11.9932 10.2294 11.9932 10.4283C11.9932 10.6272 12.0722 10.818 12.2129 10.9586C12.3535 11.0993 12.5443 11.1783 12.7432 11.1783H17.5877C17.7866 11.1783 17.9774 11.0993 18.118 10.9586C18.2587 10.818 18.3377 10.6272 18.3377 10.4283C18.3377 10.2294 18.2587 10.0386 18.118 9.89795C17.9774 9.7573 17.7866 9.67828 17.5877 9.67828H12.7432ZM9.65592 13.1236L7.8682 14.9113L6.94163 13.9846C6.80097 13.844 6.6102 13.765 6.41129 13.765C6.21237 13.765 6.02161 13.844 5.88096 13.9847C5.74031 14.1253 5.6613 14.3161 5.6613 14.515C5.66131 14.7139 5.74033 14.9047 5.88098 15.0453L7.338 16.5023C7.47865 16.6429 7.66941 16.722 7.86832 16.722C8.06723 16.722 8.25799 16.6429 8.39864 16.5023L10.7166 14.1844C10.8558 14.0434 10.9336 13.8531 10.933 13.655C10.9324 13.4569 10.8534 13.267 10.7134 13.1269C10.5733 12.9868 10.3834 12.9079 10.1853 12.9073C9.98718 12.9067 9.79686 12.9845 9.65592 13.1237V13.1236ZM17.5877 14.063H12.7432C12.5443 14.063 12.3535 14.142 12.2129 14.2826C12.0722 14.4233 11.9932 14.6141 11.9932 14.813C11.9932 15.0119 12.0722 15.2026 12.2129 15.3433C12.3535 15.484 12.5443 15.563 12.7432 15.563H17.5877C17.7866 15.563 17.9774 15.484 18.118 15.3433C18.2587 15.2026 18.3377 15.0119 18.3377 14.813C18.3377 14.6141 18.2587 14.4233 18.118 14.2826C17.9774 14.142 17.7866 14.063 17.5877 14.063ZM9.65592 17.5083L7.8682 19.296L6.94163 18.3693C6.80097 18.2287 6.6102 18.1497 6.41129 18.1497C6.21237 18.1497 6.02161 18.2287 5.88096 18.3694C5.74031 18.51 5.6613 18.7008 5.6613 18.8997C5.66131 19.0986 5.74033 19.2894 5.88098 19.43L7.338 20.887C7.47865 21.0276 7.66941 21.1066 7.86832 21.1066C8.06723 21.1066 8.25799 21.0276 8.39864 20.887L10.7167 18.569C10.787 18.4995 10.8429 18.4168 10.8812 18.3256C10.9194 18.2344 10.9393 18.1366 10.9396 18.0377C10.9399 17.9388 10.9206 17.8409 10.8829 17.7495C10.8452 17.6581 10.7898 17.575 10.7199 17.5051C10.65 17.4352 10.5669 17.3798 10.4755 17.3421C10.3841 17.3044 10.2862 17.2851 10.1873 17.2854C10.0884 17.2857 9.99057 17.3056 9.89939 17.3438C9.80822 17.3821 9.7255 17.438 9.65601 17.5083L9.65592 17.5083ZM17.5877 18.4476H12.7432C12.5443 18.4476 12.3535 18.5266 12.2129 18.6673C12.0722 18.8079 11.9932 18.9987 11.9932 19.1976C11.9932 19.3965 12.0722 19.5873 12.2129 19.7279C12.3535 19.8686 12.5443 19.9476 12.7432 19.9476H17.5877C17.7866 19.9476 17.9774 19.8686 18.118 19.7279C18.2587 19.5873 18.3377 19.3965 18.3377 19.1976C18.3377 18.9987 18.2587 18.8079 18.118 18.6673C17.9774 18.5266 17.7866 18.4476 17.5877 18.4476ZM17.9676 0.75V1.68122H18.9495C19.5115 1.68185 20.0503 1.90537 20.4477 2.30275C20.845 2.70012 21.0686 3.23889 21.0692 3.80086V21.8805C21.0685 22.4425 20.845 22.9812 20.4476 23.3785C20.0502 23.7759 19.5115 23.9994 18.9495 24H5.04933C4.48736 23.9994 3.94859 23.7758 3.55121 23.3785C3.15384 22.9811 2.93032 22.4423 2.92969 21.8804V3.80086C2.93032 3.23889 3.15384 2.70012 3.55121 2.30275C3.94859 1.90537 4.48736 1.68185 5.04933 1.68122H6.03127V0.75C6.03127 0.551088 6.11028 0.360322 6.25094 0.21967C6.39159 0.0790176 6.58235 0 6.78127 0L17.2176 0C17.4165 0 17.6073 0.0790176 17.7479 0.21967C17.8886 0.360322 17.9676 0.551088 17.9676 0.75ZM7.53127 3.39675H16.4676V1.5H7.53127V3.39675ZM17.9676 3.18112V4.14675C17.9676 4.34566 17.8886 4.53643 17.7479 4.67708C17.6073 4.81773 17.4165 4.89675 17.2176 4.89675H6.78127C6.58235 4.89675 6.39159 4.81773 6.25094 4.67708C6.11028 4.53643 6.03127 4.34566 6.03127 4.14675V3.18112H5.04933C4.88503 3.18131 4.72752 3.24667 4.61135 3.36285C4.49518 3.47904 4.42985 3.63656 4.42969 3.80086V21.8805C4.42992 22.0448 4.49529 22.2022 4.61145 22.3184C4.72761 22.4345 4.88508 22.4998 5.04933 22.5H18.9495C19.1138 22.4998 19.2713 22.4345 19.3875 22.3183C19.5037 22.2021 19.569 22.0446 19.5692 21.8804V3.80086C19.569 3.63658 19.5037 3.47908 19.3875 3.36291C19.2713 3.24675 19.1138 3.1814 18.9495 3.18122L17.9676 3.18112Z" fill="black"/>
</svg>
